<svg xmlns="http://www.w3.org/2000/svg" version="1.0" preserveAspectRatio="xMidYMid meet" viewBox="19.85 39 754.79 210">

<g transform="translate(0.000000,297.000000) scale(0.100000,-0.100000)" stroke="none">
<path d="M693 2118 c-253 -255 -469 -478 -478 -497 -22 -44 -22 -138 0 -182 18 -36 933 -959 950 -959 6 0 49 38 95 85 l85 85 -433 433 c-237 238 -432 439 -432 447 0 8 195 209 433 448 l432 433 -87 84 c-48 47 -91 85 -95 85 -5 0 -216 -208 -470 -462z"  fill="#d9d9d9"/>
<path d="M1693 2068 c-46 -46 -86 -86 -90 -91 -4 -4 89 -103 205 -220 117 -117 212 -220 212 -227 0 -8 -96 -110 -212 -227 l-213 -213 65 -66 c36 -36 78 -75 94 -86 l28 -21 240 239 c132 131 249 257 261 279 28 54 28 136 0 190 -12 22 -131 149 -265 283 l-243 242 -82 -82z" fill="#d9d9d9"/>
<path d="M5247 2093 c-4 -3 -7 -87 -7 -186 0 -172 -1 -179 -18 -164 -61 55 -199 79 -301 53 -132 -34 -208 -96 -265 -215 -30 -63 -31 -72 -31 -191 0 -119 1 -128 31 -190 54 -113 118 -171 235 -210 115 -39 275 -15 346 52 l23 21 0 -41 0 -42 135 0 135 0 0 560 0 560 -138 0 c-76 0 -142 -3 -145 -7z m-77 -535 c51 -35 75 -90 75 -174 0 -61 -4 -76 -28 -113 -31 -46 -91 -80 -142 -81 -49 0 -117 40 -141 84 -40 72 -39 178 4 235 36 49 80 71 142 71 43 0 65 -6 90 -22z" fill="#0474c5"/>
<path d="M2948 2034 c-182 -44 -336 -182 -387 -348 -63 -204 -19 -407 121 -552 208 -217 608 -232 824 -31 l56 52 -94 87 -95 87 -32 -33 c-112 -116 -318 -118 -429 -5 -57 59 -76 112 -77 219 0 79 4 102 22 136 34 63 66 97 125 129 47 27 63 30 138 30 96 0 145 -18 217 -80 l41 -35 90 82 c104 93 104 91 21 157 -63 50 -138 86 -221 106 -78 18 -243 18 -320 -1z" fill="#0474c5"/>
<path d="M6792 2032 l-92 -3 0 -524 0 -525 145 0 145 0 0 524 0 524 -53 4 c-28 1 -94 2 -145 0z" fill="#0474c5"/>
<path d="M7228 1873 l-3 -108 -35 -2 c-19 -1 -45 -2 -57 -2 -22 -1 -23 -4 -23 -106 l0 -105 60 0 60 0 0 -177 c1 -192 7 -224 55 -294 64 -91 243 -134 391 -94 35 9 67 21 70 26 3 5 -10 52 -28 104 -26 74 -36 94 -48 89 -26 -12 -79 -16 -105 -10 -45 11 -55 50 -55 210 l0 145 93 3 92 3 3 103 3 102 -96 0 -95 0 0 110 0 110 -140 0 -139 0 -3 -107z" fill="#0474c5"/>
<path d="M3965 1800 c-218 -44 -355 -205 -355 -416 0 -235 195 -414 452 -414 191 0 344 82 412 222 129 266 -5 543 -293 604 -72 15 -153 16 -216 4z m195 -243 c47 -31 71 -77 77 -147 7 -68 -13 -133 -50 -168 -82 -77 -218 -59 -265 35 -54 106 -30 221 58 281 46 31 134 31 180 -1z" fill="#0474c5"/>
<path d="M6015 1800 c-165 -35 -284 -136 -328 -275 -77 -249 57 -479 314 -540 166 -39 377 2 458 89 l24 25 -69 73 c-37 40 -71 73 -74 73 -3 0 -31 -13 -63 -29 -46 -23 -72 -29 -125 -30 -37 0 -74 4 -82 9 -8 5 -21 10 -29 11 -26 5 -91 81 -91 109 0 3 132 5 294 5 l294 0 4 36 c7 59 -10 163 -36 219 -63 138 -197 221 -371 230 -44 2 -98 0 -120 -5z m171 -209 c45 -20 82 -65 86 -102 l3 -24 -155 -3 c-85 -1 -160 0 -167 2 -18 7 0 52 35 90 53 57 125 70 198 37z" fill="#0474c5"/>
</g>
</svg>