<svg xmlns="http://www.w3.org/2000/svg" version="1.0" preserveAspectRatio="xMidYMid meet" viewBox="21 54 521.9 416">

<g transform="translate(0.000000,482.000000) scale(0.100000,-0.100000)"  stroke="none">
<path d="M2128 3703 c-401 -401 -582 -589 -593 -615 -21 -53 -19 -163 4 -213 13 -27 207 -228 598 -618 l578 -577 110 110 110 110 -534 534 c-476 476 -532 536 -526 557 4 13 244 261 533 551 l527 528 -105 105 c-58 58 -109 105 -115 105 -5 0 -270 -260 -587 -577z" fill="#0A0A0A"/>
<path d="M3355 3640 l-110 -110 264 -264 c232 -233 262 -267 256 -287 -4 -13 -121 -139 -261 -279 -140 -140 -254 -258 -254 -261 0 -3 50 -52 111 -109 l111 -103 304 304 c192 192 312 319 324 345 27 55 27 163 0 218 -12 26 -133 154 -327 349 l-308 307 -110 -110z" fill="#0A0A0A"/>
<path d="M2920 1065 l0 -185 -40 29 c-57 41 -116 55 -216 48 -197 -12 -335 -143 -364 -344 -35 -252 109 -455 346 -488 89 -12 226 24 263 69 21 25 31 19 31 -18 l0 -35 53 -3 c28 -2 87 -2 130 0 l77 4 0 554 0 554 -140 0 -140 0 0 -185z m-90 -347 c73 -37 109 -127 90 -227 -15 -84 -81 -141 -164 -141 -99 0 -162 63 -173 174 -10 92 27 163 101 197 54 25 92 24 146 -3z" fill="#3E4AB8"/>
<path d="M665 1196 c-176 -34 -327 -141 -399 -284 -27 -54 -56 -180 -56 -247 0 -154 59 -294 164 -393 114 -106 239 -152 416 -152 120 0 196 16 285 60 75 37 161 111 153 131 -3 9 -45 50 -92 93 l-86 78 -50 -45 c-120 -108 -294 -104 -407 8 -66 66 -88 132 -81 244 5 85 26 136 80 190 84 86 231 108 344 51 33 -16 73 -43 88 -59 l29 -30 95 87 95 87 -53 46 c-132 119 -336 171 -525 135z" fill="#3E4AB8"/>
<path d="M4370 666 l0 -524 23 -3 c12 -2 79 -3 150 -1 l127 3 0 525 0 524 -150 0 -150 0 0 -524z" fill="#3E4AB8"/>
<path d="M4900 1025 l0 -105 -60 0 -60 0 0 -105 0 -105 59 0 58 0 5 -183 c4 -169 6 -187 30 -237 28 -63 66 -104 120 -131 48 -25 169 -43 232 -35 58 8 146 34 145 44 0 4 -15 47 -32 97 -27 76 -35 90 -52 87 -100 -15 -99 -15 -127 12 l-28 25 0 161 0 160 90 0 90 0 0 105 0 105 -90 0 -90 0 0 105 0 105 -145 0 -145 0 0 -105z" fill="#3E4AB8"/>
<path d="M1613 946 c-132 -32 -233 -112 -286 -224 -26 -56 -32 -82 -35 -158 -7 -156 38 -256 155 -345 168 -128 430 -128 598 -1 189 143 209 445 40 614 -106 107 -303 155 -472 114z m207 -228 c56 -29 87 -74 95 -142 12 -95 -32 -186 -105 -216 -41 -17 -130 -8 -163 16 -38 28 -68 87 -74 148 -10 92 27 163 101 197 54 25 92 24 146 -3z" fill="#3E4AB8"/>
<path d="M3666 949 c-70 -16 -164 -70 -210 -119 -179 -192 -144 -490 74 -630 172 -110 457 -100 605 23 l29 24 -73 81 -72 80 -51 -31 c-64 -40 -163 -49 -233 -22 -44 16 -105 76 -105 102 0 10 63 13 296 13 l297 0 -5 98 c-4 77 -10 110 -30 154 -69 150 -220 239 -401 237 -45 -1 -100 -5 -121 -10z m197 -203 c39 -16 62 -40 82 -89 l15 -37 -171 0 -170 0 6 23 c12 37 56 88 89 103 40 17 108 18 149 0z" fill="#3E4AB8"/>
</g>
</svg>